{"title":"Flatliners 2017 1080p BluRay 6CH (5.1) AAC x264 - EiE","magnet":"magnet:?xt=urn:btih:5c7c66233908960b4d7f4d86326b4d7ac37a460a&dn=Flatliners+2017+1080p+BluRay+6CH+%285.1%29+AAC+x264+-+EiE&tr=udp%3A%2F%2Ftracker.leechers-paradise.org%3A6969&tr=udp%3A%2F%2Fzer0day.ch%3A1337&tr=udp%3A%2F%2Fopen.demonii.com%3A1337&tr=udp%3A%2F%2Ftracker.coppersurfer.tk%3A6969&tr=udp%3A%2F%2Fexodus.desync.com%3A6969","uploader":"samcode4u","categoryP":"video","categoryS":"hd___movies","size":"1825178496","seeders":"0","leechers":"41","description":"Flatliners 2017 1080p BluRay 6CH (5.1) AAC x264 - EiE\r\n\r\n <a href=\"\nhttps://www.imdb.com/title/tt2039338/\" rel=\"nofollow\" target=\"_NEW\">\nhttps://www.imdb.com/title/tt2039338/</a>\r\n\r\n\r\nScreenshots:\r\n\r\n <a href=\"\nhttps://lensdump.com/i/ptsUm\" rel=\"nofollow\" target=\"_NEW\">\nhttps://lensdump.com/i/ptsUm</a>\r\n <a href=\"\nhttps://lensdump.com/i/ptm7P\" rel=\"nofollow\" target=\"_NEW\">\nhttps://lensdump.com/i/ptm7P</a>\r\n <a href=\"\nhttps://lensdump.com/i/ptKmo\" rel=\"nofollow\" target=\"_NEW\">\nhttps://lensdump.com/i/ptKmo</a>\r\n <a href=\"\nhttps://lensdump.com/i/pt4Zi\" rel=\"nofollow\" target=\"_NEW\">\nhttps://lensdump.com/i/pt4Zi</a>\r\n\r\n\r\n\r\n\r\nVideo\r\nID                                       : 1\r\nFormat                                   : AVC\r\nFormat/Info                              : Advanced Video Codec\r\nFormat settings, CABAC                   : Yes\r\nFormat settings, ReFrames                : 4 frames\r\nCodec ID                                 : avc1\r\nCodec ID/Info                            : Advanced Video Coding\r\nDuration                                 : 1h 49mn\r\nBit rate                                 : 1 961 Kbps\r\nMaximum bit rate                         : 19.7 Mbps\r\nWidth                                    : 1 912 pixels\r\nHeight                                   : 800 pixels\r\nDisplay aspect ratio                     : 2.40:1\r\nFrame rate mode                          : Constant\r\nFrame rate                               : 23.976 fps\r\nColor space                              : YUV\r\nChroma subsampling                       : 4:2:0\r\nBit depth                                : 8 bits\r\nScan type                                : Progressive\r\nBits/(Pixel*Frame)                       : 0.053\r\nStream size                              : 1.50 GiB (88%)\r\n\r\nAudio\r\nID                                       : 2\r\nFormat                                   : AAC\r\nFormat/Info                              : Advanced Audio Codec\r\nFormat profile                           : LC\r\nCodec ID                                 : 40\r\nDuration                                 : 1h 49mn\r\nBit rate mode                            : Variable\r\nBit rate                                 : 253 Kbps\r\nMaximum bit rate                         : 321 Kbps\r\nChannel(s)                               : 6 channels\r\nChannel positions                        : Front: L C R, Side: L R, LFE\r\nSampling rate                            : 48.0 KHz\r\nCompression mode                         : Lossy\r\nStream size                              : 198 MiB (11%)\r\nLanguage                                 : English","last_updated":"2017-12-21T12:02:33.880Z","parsed":{"xt":"urn:btih:5c7c66233908960b4d7f4d86326b4d7ac37a460a","dn":"Flatliners 2017 1080p BluRay 6CH (5.1) AAC x264 - EiE","tr":["udp://exodus.desync.com:6969","udp://open.demonii.com:1337","udp://tracker.coppersurfer.tk:6969","udp://tracker.leechers-paradise.org:6969","udp://zer0day.ch:1337"],"infoHash":"5c7c66233908960b4d7f4d86326b4d7ac37a460a","infoHashBuffer":{"type":"Buffer","data":[92,124,102,35,57,8,150,11,77,127,77,134,50,107,77,122,195,122,70,10]},"name":"Flatliners 2017 1080p BluRay 6CH (5.1) AAC x264 - EiE","announce":["udp://exodus.desync.com:6969","udp://open.demonii.com:1337","udp://tracker.coppersurfer.tk:6969","udp://tracker.leechers-paradise.org:6969","udp://zer0day.ch:1337"],"urlList":[]}}